<svg width="40" height="40" viewBox="0 0 22 23" fill="none" xmlns="http://www.w3.org/2000/svg">
<g clip-path="url(#clip0_1_421)">
<path d="M21.2344 2.69995L21.9677 2.65155C21.9582 2.50758 21.9064 2.36962 21.8189 2.25494C21.7313 2.14025 21.6119 2.05395 21.4755 2.00682C21.3392 1.95969 21.1919 1.95384 21.0522 1.99C20.9126 2.02615 20.7866 2.10271 20.6903 2.21008L21.2344 2.69995ZM20.504 7.03981C20.504 6.84532 20.4267 6.6588 20.2892 6.52127C20.1517 6.38374 19.9652 6.30648 19.7707 6.30648C19.5762 6.30648 19.3896 6.38374 19.2521 6.52127C19.1146 6.6588 19.0373 6.84532 19.0373 7.03981H20.504ZM0.733332 18.8333V18.0999C0.575869 18.0998 0.422526 18.1502 0.295988 18.244C0.169449 18.3377 0.0764347 18.4696 0.0307055 18.6203C-0.0150238 18.771 -0.0110394 18.9324 0.0420691 19.0806C0.0951776 19.2289 0.194589 19.3561 0.325598 19.4434L0.733332 18.8333ZM2.19707 2.69995L2.88493 2.44328C2.83494 2.30939 2.74692 2.19301 2.63168 2.10848C2.51644 2.02394 2.37901 1.97491 2.23629 1.96744C2.09356 1.95996 1.95176 1.99435 1.82832 2.06638C1.70488 2.13841 1.60517 2.24494 1.54147 2.37288L2.19707 2.69995ZM8.05493 15.8999L8.57413 16.4177C8.66222 16.3293 8.7263 16.2199 8.76032 16.0999C8.79434 15.9798 8.79716 15.8531 8.76853 15.7317C8.73989 15.6102 8.68074 15.4981 8.59668 15.4059C8.51262 15.3137 8.40642 15.2445 8.28813 15.2047L8.05493 15.8999ZM18.6501 4.12701L18.1075 4.61981L18.3715 4.91168L18.7601 4.85301L18.6501 4.12701ZM20.504 2.74835C20.5788 3.88941 20.5084 4.58168 20.3236 5.10381C20.1447 5.60981 19.8308 6.02635 19.2632 6.57048L20.2781 7.62941C20.9205 7.01341 21.4163 6.40915 21.7067 5.59368C21.9897 4.79288 22.0484 3.86595 21.9677 2.65155L20.504 2.74835ZM20.504 8.10755V7.03981H19.0373V8.10901H20.504V8.10755ZM10.252 7.16008V8.56661H11.7187V7.16008H10.252ZM10.252 8.56661V9.29995H11.7187V8.56661H10.252ZM15.4367 1.96661C14.755 1.967 14.0802 2.10164 13.4506 2.36284C12.821 2.62405 12.249 3.0067 11.7673 3.48896C11.2856 3.97122 10.9035 4.54363 10.643 5.17353C10.3826 5.80342 10.2487 6.47845 10.2491 7.16008H11.7157C11.7153 6.67093 11.8113 6.1865 11.9982 5.73446C12.1851 5.28241 12.4592 4.87162 12.8049 4.52553C13.1505 4.17945 13.561 3.90486 14.0128 3.71744C14.4647 3.53003 14.949 3.43347 15.4381 3.43328V1.96661H15.4367ZM19.0359 8.10755C19.0373 14.4377 13.9143 19.5666 7.59733 19.5666V21.0333C14.7253 21.0333 20.504 15.2458 20.504 8.10755H19.0359ZM1.51067 2.95661C2.30853 5.08621 5.30053 9.29995 10.9853 9.29995V7.83328C6.12186 7.83328 3.5508 4.22528 2.88347 2.44328L1.51067 2.95661ZM1.54147 2.37288C0.005865 5.44701 -0.230268 8.43021 0.885865 10.9705C1.99907 13.5034 4.39413 15.4511 7.8232 16.5951L8.28813 15.2047C5.12747 14.1487 3.1284 12.4298 2.22787 10.3794C1.33027 8.33635 1.4608 5.81808 2.85413 3.02701L1.54147 2.37288ZM7.53573 15.3822C6.6528 16.2666 3.99813 18.0999 0.733332 18.0999V19.5666C4.4968 19.5666 7.50493 17.4898 8.57413 16.4177L7.53573 15.3822ZM19.1943 3.63568C18.7201 3.10981 18.1407 2.68948 17.4936 2.40195C16.8465 2.11441 16.1462 1.96609 15.4381 1.96661V3.43328C16.4956 3.43328 17.4475 3.88941 18.1075 4.61981L19.1943 3.63568ZM18.7601 4.85301C19.9284 4.66215 20.9953 4.07483 21.7815 3.18981L20.6903 2.21008C20.1311 2.84183 19.3722 3.26271 18.5401 3.40248L18.7601 4.85301ZM0.325598 19.4434C2.7324 21.0479 5.25506 21.0333 7.59733 21.0333V19.5666C5.20667 19.5666 3.12693 19.5505 1.14107 18.2231L0.325598 19.4434Z" fill="white"/>
</g>
<defs>
<clipPath id="clip0_1_421">
<rect width="22" height="22" fill="white" transform="translate(0 0.5)"/>
</clipPath>
</defs>
</svg>
